# xmcd CD database file
#
# Track frame offsets:
#	150
#	21804
#	47102
#	65557
#	90135
#	117334
#	140315
#	160140
#	174914
#	195090
#	211267
#	233709
#	256136
#
# Disc length: 3725 seconds
#
# Revision: 2
# Processed by: cddbd v1.5.1PL0 Copyright (c) Steve Scherf et al.
# Submitted via: CDex 1.50Beta5
#
DISCID=9b0e8b0d
DTITLE=EX-GIRLFRIEND - It's A Woman Thang
DYEAR=1994
DGENRE=R&B
TTITLE0=X In Your Sex
TTITLE1=Can I Get A Nasty
TTITLE2=You For Me
TTITLE3=Sexual Chocolate
TTITLE4=I Want You
TTITLE5=It's A Woman Thang (U Wouldn't Understand It)
TTITLE6=Yes I'm Ready
TTITLE7=Falling 4-U
TTITLE8=Nobody Like You
TTITLE9=Back Together
TTITLE10=Takes Me Away
TTITLE11=Cost Of Love
TTITLE12=X In Your Sex (X Between The Sheets - F.F. Remix)
EXTD=YEAR: 1994
EXTT0=
EXTT1=
EXTT2=
EXTT3=
EXTT4=
EXTT5=
EXTT6=
EXTT7=
EXTT8=
EXTT9=
EXTT10=
EXTT11=
EXTT12=
PLAYORDER=
